<svg width="32" height="32" viewBox="0 0 100 100" xmlns="http://www.w3.org/2000/svg" xmlns:xlink="http://www.w3.org/1999/xlink">
    <defs>
        <path id="r-path" d="M25,85 L25,15 H60 C75,15 85,25 85,40 C85,55 75,65 60,65 H45 L70,85 H50 L25,60 V85 Z M42,50 H60 C65,50 70,45 70,40 C70,35 65,30 60,30 H42 V50 Z" />
        <clipPath id="glitch-clip">
            <use xlink:href="#r-path" />
        </clipPath>
        <pattern id="glitch-pattern" width="10" height="10" patternUnits="userSpaceOnUse">
            <rect width="10" height="10" fill="hsl(290, 72%, 40%)" fill-opacity="0.1"/>
            <line x1="0" y1="0" x2="10" y2="10" stroke="hsl(290, 72%, 40%)" stroke-width="1" stroke-opacity="0.2"/>
            <rect x="2" y="5" width="3" height="1" fill="hsl(290, 72%, 40%)" fill-opacity="0.3"/>
        </pattern>
    </defs>
    
    <g transform="translate(4, 4)">
        <use xlink:href="#r-path" fill="hsl(290, 72%, 40%)" />
    </g>
    
    <g>
        <use xlink:href="#r-path" fill="hsl(81, 85%, 67%)" />
        <rect clip-path="url(#glitch-clip)" fill="url(#glitch-pattern)" x="0" y="0" width="100" height="100"/>
    </g>
</svg>